<?xml version="1.0" encoding="UTF-8"?><svg id="Calque_1" xmlns="http://www.w3.org/2000/svg" viewBox="0 0 1230 618.84"><defs><style>.cls-1{fill:#1d1d1b;}</style></defs><path class="cls-1" d="m1219.64,435.45c-20.27,35.47-88.66,146.93-214.06,159.6-127.93,12.67-235.59-58.27-282.46-191.26-53.2-152,3.8-352.12,159.6-387.59,119.06-27.87,239.39,81.06,269.79,157.06h7.6l19-105.13C1113.25,33.93,1011.92,1,939.72,1c-123.03,0-292.48,80-326.08,249.58C579.9,82.49,410.58,7.71,287.62,1.01,179.96-4.06,31.76,47.87,14.03,201.13h117.8C59.63,220.13-6.24,293.6,3.89,408.86c7.6,89.93,87.4,208.99,267.26,208.99,158.17,0,311.15-70.53,342.58-238.8,32.32,169.73,190.55,246.82,348.79,238.79,150.73-8.87,225.46-107.66,264.73-178.59l-7.6-3.8ZM105.23,191C121.69,80.8,220.49-7.86,344.62,16.21c86.13,16.47,141.86,88.66,164.66,174.8H105.23Zm397.72,212.79c-46.87,133-141.86,191.26-271.06,186.2-108.93-5.07-203.93-79.8-216.59-178.6C.09,279.67,87.49,201.13,183.76,201.13h328.06c16.47,67.13,12.67,141.86-8.87,202.66Z"/><circle class="cls-1" cx="615.67" cy="580.17" r="37.67"/></svg>