<?xml version="1.0" standalone="no"?>
<!DOCTYPE svg PUBLIC "-//W3C//DTD SVG 20010904//EN"
 "http://www.w3.org/TR/2001/REC-SVG-20010904/DTD/svg10.dtd">
<svg version="1.0" xmlns="http://www.w3.org/2000/svg"
 width="1230.000000pt" height="1230.000000pt" viewBox="0 0 1230.000000 1230.000000"
 preserveAspectRatio="xMidYMid meet">
<metadata>
Created by potrace 1.14, written by Peter Selinger 2001-2017
</metadata>
<g transform="translate(0.000000,1230.000000) scale(0.100000,-0.100000)"
fill="#000000" stroke="none">
<path d="M2509 9206 c-2 -2 -40 -6 -84 -10 -44 -3 -89 -8 -100 -10 -11 -2 -42
-7 -70 -10 -84 -11 -205 -35 -310 -62 -55 -14 -107 -27 -116 -29 -97 -20 -390
-138 -538 -217 -91 -48 -251 -145 -261 -157 -3 -4 -18 -15 -35 -25 -122 -77
-300 -250 -458 -445 -69 -86 -190 -301 -250 -446 -26 -62 -82 -235 -91 -276
-3 -13 -12 -58 -21 -99 -19 -87 -28 -143 -29 -185 l-1 -30 573 0 c315 0 565
-3 555 -7 -10 -3 -52 -19 -93 -34 -449 -163 -812 -523 -1005 -995 -55 -136
-113 -367 -130 -519 -13 -116 -15 -149 -15 -285 -1 -364 63 -650 215 -960 141
-287 354 -559 585 -748 41 -34 84 -70 94 -79 11 -10 23 -18 26 -18 4 0 18 -9
31 -21 36 -31 189 -125 293 -178 183 -95 387 -171 604 -226 106 -26 113 -28
252 -51 104 -18 112 -19 220 -29 239 -23 683 -18 882 9 18 3 60 8 93 11 72 7
234 33 293 46 23 5 59 12 80 15 136 21 470 119 662 196 807 320 1365 865 1642
1603 25 68 74 216 82 250 1 6 13 56 26 112 13 56 27 100 30 98 4 -3 10 -24 13
-47 21 -144 128 -452 232 -663 226 -460 605 -870 1049 -1133 171 -102 255
-144 471 -238 54 -23 198 -76 245 -89 257 -74 403 -110 530 -130 14 -2 54 -8
90 -14 36 -5 92 -13 125 -16 33 -4 71 -8 85 -10 157 -24 679 -24 820 -1 14 3
50 7 80 10 65 7 90 12 190 31 41 9 84 17 95 19 56 11 163 41 275 78 678 221
1232 673 1676 1368 67 104 154 253 154 263 0 8 -55 37 -69 37 -5 0 -21 -21
-37 -48 -73 -127 -252 -389 -321 -472 -11 -14 -47 -56 -79 -95 -98 -119 -197
-221 -324 -335 -430 -388 -925 -607 -1462 -647 -251 -18 -521 -1 -777 52 -445
90 -889 334 -1232 675 -290 289 -506 618 -672 1025 -81 199 -176 515 -191 642
-3 18 -7 40 -10 50 -7 24 -33 209 -43 303 -10 95 -10 559 -1 666 16 179 74
499 114 628 53 170 92 283 131 376 270 635 712 1086 1269 1295 98 37 253 81
314 91 19 3 42 7 50 10 63 22 433 25 550 5 110 -19 111 -20 165 -32 375 -84
777 -296 1135 -598 83 -71 290 -277 362 -361 136 -161 251 -333 334 -501 l52
-105 38 1 37 1 38 209 c21 116 40 221 43 235 21 126 40 228 51 280 3 14 8 43
11 65 3 22 14 84 25 138 10 54 19 105 19 113 0 17 -196 114 -420 209 -469 198
-1062 373 -1465 430 -11 2 -49 8 -85 14 -200 32 -648 36 -805 7 -11 -2 -42 -6
-70 -10 -507 -68 -1058 -278 -1504 -574 -344 -228 -622 -494 -840 -802 -224
-319 -362 -634 -456 -1045 -6 -25 -14 -5 -46 117 -218 831 -797 1500 -1664
1923 -332 161 -708 289 -1020 344 -33 6 -71 13 -85 16 -73 15 -202 33 -317 44
-79 8 -497 14 -504 7z m821 -131 c167 -31 251 -52 352 -85 666 -222 1165 -812
1404 -1662 5 -17 -95 -18 -2009 -18 -1107 0 -2016 3 -2019 6 -3 3 -2 20 2 37
5 18 11 46 13 62 13 83 70 273 116 389 249 618 760 1074 1381 1232 76 19 87
21 200 39 87 14 487 14 560 0z m1791 -1893 c5 -13 11 -33 13 -45 67 -360 80
-493 80 -797 0 -231 -8 -355 -36 -535 -6 -38 -11 -77 -12 -85 -47 -326 -205
-770 -396 -1112 -52 -92 -153 -251 -177 -276 -7 -7 -13 -17 -13 -21 0 -4 -8
-16 -18 -27 -9 -10 -46 -55 -81 -98 -202 -248 -494 -476 -786 -615 -211 -100
-527 -195 -720 -217 -33 -3 -63 -8 -66 -10 -5 -3 -65 -8 -209 -20 -80 -6 -427
-6 -456 0 -11 2 -52 7 -90 10 -38 3 -80 8 -94 11 -14 3 -41 7 -60 10 -62 8
-275 63 -372 96 -492 166 -916 482 -1182 882 -72 109 -165 292 -195 383 -12
38 -26 78 -31 89 -15 34 -56 217 -65 290 -25 204 -21 468 10 657 116 699 576
1219 1235 1397 41 11 92 23 114 27 21 3 48 8 60 10 11 2 57 7 101 10 44 3 81
7 82 8 1 0 756 1 1679 1 l1677 0 8 -23z"/>
<path d="M6080 3786 c-169 -36 -288 -175 -298 -346 -9 -159 73 -297 218 -368
49 -23 67 -26 155 -26 86 0 108 3 155 26 85 39 145 98 186 185 32 66 36 84 37
151 0 152 -65 264 -196 340 -23 13 -49 26 -60 28 -10 2 -26 6 -35 9 -38 11
-110 12 -162 1z"/>
</g>
</svg>
