<svg width="29" height="30" viewBox="0 0 29 30" fill="none" xmlns="http://www.w3.org/2000/svg">
<path d="M4.83334 3.12305C3.50228 3.12305 2.41667 4.20866 2.41667 5.53971V24.873C2.41667 26.2041 3.50228 27.2897 4.83334 27.2897H24.1667C25.4977 27.2897 26.5833 26.2041 26.5833 24.873V5.53971C26.5833 4.20866 25.4977 3.12305 24.1667 3.12305H4.83334ZM14.8021 5.53971C16.0199 5.53971 17.4831 6.72445 17.4831 12.3743C17.4831 14.3945 16.8931 17.4012 15.7461 19.8131C16.2464 20.4928 16.7231 20.7949 17.0677 20.7949C17.535 20.7005 18.5828 18.8361 19.1445 17.0566C19.3003 16.5658 19.8006 16.2967 20.2773 16.4525C20.7635 16.5941 21.0231 17.1463 20.8815 17.623C20.4048 19.1382 19.0737 22.6452 17.0677 22.6452C16.4352 22.6452 15.6139 22.3384 14.8021 21.5124C13.8817 22.8009 12.7158 23.6647 11.3659 23.6647C8.51026 23.6647 7.25 21.064 7.25 18.8314C7.25 16.4572 8.46306 14.2246 11.1016 14.2246C11.5453 14.2246 11.9512 14.319 12.3099 14.4512C12.2627 13.7715 12.2344 13.0352 12.2344 12.2611C12.2344 12.1903 12.2344 5.53971 14.8021 5.53971ZM14.8776 7.50325C14.4953 8.1735 14.0469 10.1606 14.0469 12.2611C14.0469 14.5314 14.3065 16.2826 14.6888 17.5853C15.2741 15.9144 15.6706 14.0075 15.6706 12.3743C15.6706 9.29215 15.1655 7.93278 14.8776 7.50325ZM10.7617 16.0749C9.12859 16.4006 9.10027 19.0485 9.10027 19.1712C9.10027 19.9689 9.29851 21.8145 11.3659 21.8145C12.1636 21.8145 12.9754 21.0592 13.6693 19.8887C13.2492 19.0768 12.8621 18.0715 12.612 16.7923C12.5506 16.7546 12.4987 16.6885 12.4609 16.6413C12.4609 16.6413 11.8757 16.0749 11.1016 16.0749C10.9788 16.0749 10.8703 16.0513 10.7617 16.0749Z" fill="#232323"/>
</svg>
