<svg width="29" height="29" viewBox="0 0 29 29" fill="none" xmlns="http://www.w3.org/2000/svg">
<path d="M4.83333 2.41669C3.50228 2.41669 2.41667 3.5023 2.41667 4.83335V24.1667C2.41667 25.4977 3.50228 26.5834 4.83333 26.5834H24.1667C25.4977 26.5834 26.5833 25.4977 26.5833 24.1667V4.83335C26.5833 3.5023 25.4977 2.41669 24.1667 2.41669H4.83333ZM14.8021 4.83335C16.0199 4.83335 17.4831 6.01809 17.4831 11.668C17.4831 13.6882 16.8931 16.6948 15.7461 19.1068C16.2464 19.7865 16.7231 20.0886 17.0677 20.0886C17.535 19.9942 18.5828 18.1297 19.1445 16.3503C19.3003 15.8594 19.8006 15.5904 20.2773 15.7461C20.7635 15.8877 21.0231 16.44 20.8815 16.9167C20.4048 18.4318 19.0737 21.9388 17.0677 21.9388C16.4352 21.9388 15.6139 21.632 14.8021 20.806C13.8817 22.0946 12.7158 22.9584 11.3659 22.9584C8.51026 22.9584 7.25 20.3576 7.25 18.125C7.25 15.7508 8.46305 13.5182 11.1016 13.5182C11.5452 13.5182 11.9512 13.6126 12.3099 13.7448C12.2627 13.0651 12.2344 12.3288 12.2344 11.5547C12.2344 11.4839 12.2344 4.83335 14.8021 4.83335ZM14.8776 6.7969C14.4953 7.46714 14.0469 9.45428 14.0469 11.5547C14.0469 13.8251 14.3065 15.5762 14.6888 16.8789C15.2741 15.208 15.6706 13.3011 15.6706 11.668C15.6706 8.58579 15.1655 7.22642 14.8776 6.7969ZM10.7617 15.3685C9.12858 15.6942 9.10026 18.3421 9.10026 18.4649C9.10026 19.2626 9.2985 21.1081 11.3659 21.1081C12.1636 21.1081 12.9754 20.3529 13.6693 19.1823C13.2492 18.3705 12.8621 17.3651 12.612 16.086C12.5506 16.0482 12.4987 15.9821 12.4609 15.9349C12.4609 15.9349 11.8757 15.3685 11.1016 15.3685C10.9788 15.3685 10.8703 15.3449 10.7617 15.3685Z" fill="#70E8CB"/>
</svg>
