<svg width="28" height="28" viewBox="0 0 28 28" fill="none" xmlns="http://www.w3.org/2000/svg">
<path d="M14 2C7.37188 2 2 7.37188 2 14C2 20.6281 7.37188 26 14 26C20.6281 26 26 20.6281 26 14C26 7.37188 20.6281 2 14 2ZM14 4.4C19.2922 4.4 23.6 8.70781 23.6 14C23.6 14.5625 23.5438 15.1156 23.45 15.65C23.1547 15.5844 22.7188 15.5047 22.2125 15.5C21.8375 15.4953 21.3688 15.5563 20.975 15.6125C21.1109 15.1953 21.2 14.7359 21.2 14.2625C21.2 13.1094 20.6375 12.0359 19.7375 11.15C19.9859 10.2266 20.2297 8.64219 19.5875 8C17.6891 8 16.6391 9.35469 16.5875 9.425C16.0016 9.28438 15.3969 9.2 14.75 9.2C13.9203 9.2 13.1281 9.35 12.3875 9.575L12.6125 9.3875C12.6125 9.3875 11.5578 7.925 9.6125 7.925C8.93281 8.60938 9.24219 10.3438 9.5 11.225C8.58125 12.1016 8 13.1375 8 14.2625C8 14.6563 8.09375 15.0313 8.1875 15.3875C7.85469 15.35 6.65469 15.2375 6.1625 15.2375C5.72656 15.2375 5.05156 15.3406 4.5125 15.4625C4.4375 14.9844 4.4 14.4969 4.4 14C4.4 8.70781 8.70781 4.4 14 4.4ZM6.1625 15.5375C6.63594 15.5375 8.075 15.7063 8.2625 15.725C8.28594 15.7906 8.30938 15.8516 8.3375 15.9125C7.82188 15.8656 6.82344 15.7953 6.1625 15.875C5.72188 15.9266 5.15938 16.0859 4.6625 16.2125C4.625 16.0625 4.57813 15.9172 4.55 15.7625C5.075 15.65 5.76406 15.5375 6.1625 15.5375ZM22.2125 15.8C22.6906 15.8047 23.1266 15.8844 23.4125 15.95C23.3984 16.0297 23.3563 16.0953 23.3375 16.175C23.0328 16.1047 22.5313 16.0016 21.95 15.9875C21.6688 15.9828 21.2188 15.9969 20.825 16.025C20.8438 15.9875 20.8484 15.95 20.8625 15.9125C21.2703 15.8563 21.7906 15.7953 22.2125 15.8ZM6.9125 16.1375C7.5875 16.1422 8.22031 16.1891 8.4875 16.2125C9.11563 17.3844 10.3859 18.2516 12.35 18.6125C11.8672 18.8797 11.4359 19.2547 11.1125 19.7C10.8313 19.7234 10.5359 19.7375 10.25 19.7375C9.41563 19.7375 8.89531 18.9922 8.45 18.35C8 17.7078 7.44688 17.6375 7.1375 17.6C6.82344 17.5625 6.71563 17.7406 6.875 17.8625C7.78906 18.5656 8.11719 19.4 8.4875 20.15C8.82031 20.825 9.51875 21.2 10.2875 21.2H10.4375C10.4141 21.3313 10.4 21.4531 10.4 21.575V22.8875C7.62969 21.7672 5.52031 19.4 4.7375 16.475C5.22969 16.3531 5.78281 16.2266 6.2 16.175C6.39219 16.1516 6.63594 16.1328 6.9125 16.1375ZM21.95 16.2875C22.4891 16.3016 22.9672 16.4047 23.2625 16.475C22.6016 18.9594 20.9703 21.0266 18.8 22.2875V21.575C18.8 20.5531 17.9938 19.2406 16.85 18.6125C18.7484 18.2656 19.9859 17.4359 20.6375 16.325C21.0922 16.2922 21.6266 16.2781 21.95 16.2875ZM14.6 21.2C14.9281 21.2 15.2 21.4719 15.2 21.8V23.525C14.8063 23.5766 14.4078 23.6 14 23.6V21.8C14 21.4719 14.2719 21.2 14.6 21.2ZM12.2 22.4C12.5281 22.4 12.8 22.6719 12.8 23V23.525C12.3969 23.4734 11.9891 23.3984 11.6 23.3V23C11.6 22.6719 11.8719 22.4 12.2 22.4ZM17 22.4C17.2906 22.4 17.5438 22.6109 17.6 22.8875C17.2109 23.0469 16.8125 23.1922 16.4 23.3V23C16.4 22.6719 16.6719 22.4 17 22.4Z" fill="#70E8CB"/>
</svg>
