<svg width="28" height="29" viewBox="0 0 28 29" fill="none" xmlns="http://www.w3.org/2000/svg">
<path d="M14 2.35352C7.37188 2.35352 2 7.72539 2 14.3535C2 20.9816 7.37188 26.3535 14 26.3535C20.6281 26.3535 26 20.9816 26 14.3535C26 7.72539 20.6281 2.35352 14 2.35352ZM14 4.75352C19.2922 4.75352 23.6 9.06133 23.6 14.3535C23.6 14.916 23.5438 15.4691 23.45 16.0035C23.1547 15.9379 22.7188 15.8582 22.2125 15.8535C21.8375 15.8488 21.3688 15.9098 20.975 15.966C21.1109 15.5488 21.2 15.0895 21.2 14.616C21.2 13.4629 20.6375 12.3895 19.7375 11.5035C19.9859 10.5801 20.2297 8.9957 19.5875 8.35352C17.6891 8.35352 16.6391 9.7082 16.5875 9.77852C16.0016 9.63789 15.3969 9.55352 14.75 9.55352C13.9203 9.55352 13.1281 9.70352 12.3875 9.92852L12.6125 9.74102C12.6125 9.74102 11.5578 8.27852 9.6125 8.27852C8.93281 8.96289 9.24219 10.6973 9.5 11.5785C8.58125 12.4551 8 13.491 8 14.616C8 15.0098 8.09375 15.3848 8.1875 15.741C7.85469 15.7035 6.65469 15.591 6.1625 15.591C5.72656 15.591 5.05156 15.6941 4.5125 15.816C4.4375 15.3379 4.4 14.8504 4.4 14.3535C4.4 9.06133 8.70781 4.75352 14 4.75352ZM6.1625 15.891C6.63594 15.891 8.075 16.0598 8.2625 16.0785C8.28594 16.1441 8.30938 16.2051 8.3375 16.266C7.82188 16.2191 6.82344 16.1488 6.1625 16.2285C5.72188 16.2801 5.15938 16.4395 4.6625 16.566C4.625 16.416 4.57813 16.2707 4.55 16.116C5.075 16.0035 5.76406 15.891 6.1625 15.891ZM22.2125 16.1535C22.6906 16.1582 23.1266 16.2379 23.4125 16.3035C23.3984 16.3832 23.3563 16.4488 23.3375 16.5285C23.0328 16.4582 22.5313 16.3551 21.95 16.341C21.6688 16.3363 21.2188 16.3504 20.825 16.3785C20.8438 16.341 20.8484 16.3035 20.8625 16.266C21.2703 16.2098 21.7906 16.1488 22.2125 16.1535ZM6.9125 16.491C7.5875 16.4957 8.22031 16.5426 8.4875 16.566C9.11563 17.7379 10.3859 18.6051 12.35 18.966C11.8672 19.2332 11.4359 19.6082 11.1125 20.0535C10.8313 20.077 10.5359 20.091 10.25 20.091C9.41563 20.091 8.89531 19.3457 8.45 18.7035C8 18.0613 7.44688 17.991 7.1375 17.9535C6.82344 17.916 6.71563 18.0941 6.875 18.216C7.78906 18.9191 8.11719 19.7535 8.4875 20.5035C8.82031 21.1785 9.51875 21.5535 10.2875 21.5535H10.4375C10.4141 21.6848 10.4 21.8066 10.4 21.9285V23.241C7.62969 22.1207 5.52031 19.7535 4.7375 16.8285C5.22969 16.7066 5.78281 16.5801 6.2 16.5285C6.39219 16.5051 6.63594 16.4863 6.9125 16.491ZM21.95 16.641C22.4891 16.6551 22.9672 16.7582 23.2625 16.8285C22.6016 19.3129 20.9703 21.3801 18.8 22.641V21.9285C18.8 20.9066 17.9938 19.5941 16.85 18.966C18.7484 18.6191 19.9859 17.7895 20.6375 16.6785C21.0922 16.6457 21.6266 16.6316 21.95 16.641ZM14.6 21.5535C14.9281 21.5535 15.2 21.8254 15.2 22.1535V23.8785C14.8063 23.9301 14.4078 23.9535 14 23.9535V22.1535C14 21.8254 14.2719 21.5535 14.6 21.5535ZM12.2 22.7535C12.5281 22.7535 12.8 23.0254 12.8 23.3535V23.8785C12.3969 23.827 11.9891 23.752 11.6 23.6535V23.3535C11.6 23.0254 11.8719 22.7535 12.2 22.7535ZM17 22.7535C17.2906 22.7535 17.5438 22.9645 17.6 23.241C17.2109 23.4004 16.8125 23.5457 16.4 23.6535V23.3535C16.4 23.0254 16.6719 22.7535 17 22.7535Z" fill="#232323"/>
</svg>
