<svg width="33" height="34" viewBox="0 0 33 34" fill="none" xmlns="http://www.w3.org/2000/svg">
<path d="M11 4.1875C7.20363 4.1875 4.125 7.26613 4.125 11.0625V22.0625C4.125 25.8589 7.20363 28.9375 11 28.9375H22C25.7964 28.9375 28.875 25.8589 28.875 22.0625V11.0625C28.875 7.26613 25.7964 4.1875 22 4.1875H11ZM24.75 6.9375C25.509 6.9375 26.125 7.5535 26.125 8.3125C26.125 9.0715 25.509 9.6875 24.75 9.6875C23.991 9.6875 23.375 9.0715 23.375 8.3125C23.375 7.5535 23.991 6.9375 24.75 6.9375ZM16.5 9.6875C20.2964 9.6875 23.375 12.7661 23.375 16.5625C23.375 20.3589 20.2964 23.4375 16.5 23.4375C12.7036 23.4375 9.625 20.3589 9.625 16.5625C9.625 12.7661 12.7036 9.6875 16.5 9.6875ZM16.5 12.4375C15.406 12.4375 14.3568 12.8721 13.5832 13.6457C12.8096 14.4193 12.375 15.4685 12.375 16.5625C12.375 17.6565 12.8096 18.7057 13.5832 19.4793C14.3568 20.2529 15.406 20.6875 16.5 20.6875C17.594 20.6875 18.6432 20.2529 19.4168 19.4793C20.1904 18.7057 20.625 17.6565 20.625 16.5625C20.625 15.4685 20.1904 14.4193 19.4168 13.6457C18.6432 12.8721 17.594 12.4375 16.5 12.4375Z" fill="#232323"/>
</svg>
