<svg width="31" height="31" viewBox="0 0 31 31" fill="none" xmlns="http://www.w3.org/2000/svg">
<path d="M24.5417 3.875H6.45833C5.03104 3.875 3.875 5.03104 3.875 6.45833V24.5417C3.875 25.969 5.03104 27.125 6.45833 27.125H24.5417C25.969 27.125 27.125 25.969 27.125 24.5417V6.45833C27.125 5.03104 25.969 3.875 24.5417 3.875ZM11.625 21.9583H8.36613V12.9167H11.625V21.9583ZM9.93808 11.2595C8.94221 11.2595 8.277 10.5955 8.277 9.70946C8.277 8.82338 8.94092 8.15946 10.0479 8.15946C11.0437 8.15946 11.709 8.82338 11.709 9.70946C11.709 10.5955 11.045 11.2595 9.93808 11.2595ZM23.25 21.9583H20.0957V17.0164C20.0957 15.6498 19.2549 15.3347 18.9397 15.3347C18.6245 15.3347 17.5731 15.5452 17.5731 17.0164C17.5731 17.227 17.5731 21.9583 17.5731 21.9583H14.3142V12.9167H17.5731V14.1786C17.9929 13.4424 18.8338 12.9167 20.4109 12.9167C21.988 12.9167 23.25 14.1786 23.25 17.0164V21.9583Z" fill="#70E8CB"/>
</svg>
