<svg width="54" height="54" viewBox="0 0 54 54" fill="none" xmlns="http://www.w3.org/2000/svg">
<path d="M27 0C12.09 0 0 12.09 0 27C0 41.91 12.09 54 27 54C29.49 54 31.5 51.99 31.5 49.5C31.5 48.33 31.05 47.28 30.33 46.47C29.64 45.69 29.19 44.64 29.19 43.5C29.19 41.01 31.2 39 33.69 39H39C47.28 39 54 32.28 54 24C54 10.74 41.91 0 27 0ZM10.5 27C8.01 27 6 24.99 6 22.5C6 20.01 8.01 18 10.5 18C12.99 18 15 20.01 15 22.5C15 24.99 12.99 27 10.5 27ZM19.5 15C17.01 15 15 12.99 15 10.5C15 8.01 17.01 6 19.5 6C21.99 6 24 8.01 24 10.5C24 12.99 21.99 15 19.5 15ZM34.5 15C32.01 15 30 12.99 30 10.5C30 8.01 32.01 6 34.5 6C36.99 6 39 8.01 39 10.5C39 12.99 36.99 15 34.5 15ZM43.5 27C41.01 27 39 24.99 39 22.5C39 20.01 41.01 18 43.5 18C45.99 18 48 20.01 48 22.5C48 24.99 45.99 27 43.5 27Z" fill="white"/>
</svg>
