<svg width="45" height="45" viewBox="0 0 45 45" fill="none" xmlns="http://www.w3.org/2000/svg">
<path d="M23.2457 44.8802C9.72124 44.8894 -0.981693 33.574 0.0716015 20.2823C0.83074 10.7049 5.87889 4.08024 14.7844 0.374315C16.0552 -0.154627 17.2585 -0.210262 18.3093 0.777043C19.3542 1.75853 19.3684 2.93101 18.9459 4.25129C16.2793 12.594 19.9 21.2555 27.6656 25.0777C31.7271 27.0772 35.9628 27.3512 40.3059 26.0907C41.0801 25.8657 41.8367 25.5302 42.6809 25.7146C44.4533 26.1015 45.4566 27.8519 44.7941 29.5999C41.7501 37.6295 36.0003 42.5669 27.5881 44.4152C26.9131 44.5639 26.2256 44.6685 25.5382 44.7383C24.7299 44.8196 23.9157 44.8412 23.2457 44.8802ZM36.5469 32.6066C29.6847 32.825 23.8032 30.6561 18.9951 25.8616C14.2052 21.0853 12.0562 15.2246 12.2628 8.43301C7.90798 11.61 4.69643 18.0943 6.07055 25.1881C7.40633 32.086 12.9411 37.5382 19.9317 38.7737C26.9556 40.0151 33.362 36.9868 36.5469 32.6066Z" fill="#FCFCFC"/>
</svg>
