<?xml version="1.0" encoding="UTF-8"?>
<svg id="Calque_1" data-name="Calque 1" xmlns="http://www.w3.org/2000/svg" viewBox="0 0 22 552">
  <defs>
    <style>
      .cls-1 {
        fill: #232323;
      }
    </style>
  </defs>
  <path class="cls-1" d="M21,551.26v-3.53H12.95v-8.27h-2.87v8.27H4.24v-9.05H1.27v12.58H21Zm.34-28.46c0-1.92-.41-3.58-1.24-4.98-.83-1.39-2.01-2.47-3.53-3.23-1.53-.77-3.34-1.15-5.43-1.15h-.03c-2.09,0-3.89,.38-5.41,1.15-1.52,.76-2.7,1.84-3.53,3.24-.83,1.4-1.24,3.05-1.24,4.96s.41,3.57,1.24,4.98c.83,1.4,2.01,2.47,3.53,3.24,1.52,.76,3.33,1.15,5.41,1.15h.03c2.09,0,3.9-.38,5.43-1.13,1.52-.77,2.7-1.85,3.53-3.24,.83-1.4,1.24-3.07,1.24-4.99Zm-3.05,0c0,1.18-.29,2.2-.88,3.06-.58,.87-1.41,1.54-2.47,2.01-1.08,.46-2.34,.7-3.8,.7h-.03c-1.47,0-2.73-.23-3.8-.7-1.07-.47-1.89-1.14-2.46-2.01-.58-.88-.88-1.9-.88-3.06s.29-2.2,.88-3.06c.57-.86,1.4-1.53,2.47-2,1.07-.47,2.33-.71,3.79-.71h.03c1.45,0,2.71,.23,3.79,.7,1.07,.46,1.9,1.13,2.49,2,.58,.86,.88,1.88,.88,3.08Zm2.71-16.79v-12.47h-2.97v8.94H1.27v3.53H21Zm0-19.63v-12.47h-2.97v8.94H1.27v3.53H21Zm.34-27.51c0-1.92-.41-3.58-1.24-4.98-.83-1.39-2.01-2.47-3.53-3.23-1.53-.77-3.34-1.15-5.43-1.15h-.03c-2.09,0-3.89,.38-5.41,1.15-1.52,.76-2.7,1.84-3.53,3.24-.83,1.39-1.24,3.05-1.24,4.96s.41,3.57,1.24,4.98c.83,1.39,2.01,2.48,3.53,3.24,1.52,.77,3.33,1.15,5.41,1.15h.03c2.09,0,3.9-.38,5.43-1.14,1.52-.77,2.7-1.85,3.53-3.24,.83-1.4,1.24-3.07,1.24-4.99Zm-3.05,0c0,1.18-.29,2.2-.88,3.06-.58,.87-1.41,1.54-2.47,2.01-1.08,.46-2.34,.7-3.8,.7h-.03c-1.47,0-2.73-.23-3.8-.7-1.07-.47-1.89-1.14-2.46-2.01-.58-.88-.88-1.9-.88-3.06s.29-2.2,.88-3.06c.57-.87,1.4-1.53,2.47-2,1.07-.47,2.33-.71,3.79-.71h.03c1.45,0,2.71,.23,3.79,.7,1.07,.46,1.9,1.13,2.49,2,.58,.86,.88,1.88,.88,3.08Zm2.71-20.25v-3.41l-14.16-3.98v-.08l14.16-3.98v-3.4l-19.73-5.28v3.65l14.89,3.43v.07l-14.89,3.95v3.2l14.89,3.95v.07l-14.89,3.43v3.66l19.73-5.29Zm0-37.34v-3.17H6.96v-1.63l-5.14,3.6,19.18-7.77v-2.39l-19.18-7.77,5.14,3.6v-1.63h14.04v-3.17H1.27v4.07l15.08,6.04v.1l-15.08,6.04v4.07H21Zm0-33.99v-3.51h-7.78l-11.95-6.92v3.86l8.59,4.77v.1l-8.59,4.77v3.86l11.95-6.92h7.78Zm.34-34.33c0-1.6-.25-2.98-.74-4.13-.49-1.16-1.19-2.04-2.09-2.65-.9-.62-1.96-.93-3.19-.93h-.01c-1.02,0-1.9,.21-2.62,.63-.73,.41-1.34,1.05-1.82,1.91-.48,.87-.87,1.99-1.15,3.36l-.44,2.12c-.25,1.18-.58,2.06-1.01,2.62-.44,.56-1,.83-1.7,.83h-.01c-.53,0-.99-.15-1.39-.45-.4-.31-.71-.74-.93-1.3-.23-.57-.34-1.23-.34-2s.11-1.39,.33-1.95,.53-1.02,.94-1.37c.4-.35,.89-.56,1.46-.64l.18-.03v-3.36h-.23c-1.12,.08-2.11,.42-2.95,1.04-.85,.61-1.51,1.45-1.98,2.53-.47,1.08-.71,2.33-.71,3.76s.25,2.67,.74,3.77c.48,1.1,1.16,1.97,2.04,2.6,.87,.62,1.88,.93,3.05,.94h.01c1.47,0,2.66-.48,3.58-1.45,.91-.97,1.57-2.42,1.97-4.35l.44-2.12c.27-1.28,.62-2.19,1.05-2.73,.43-.56,1.01-.83,1.75-.83h.01c.57,0,1.06,.16,1.49,.49,.42,.33,.74,.8,.97,1.41,.23,.6,.34,1.32,.34,2.15s-.11,1.55-.33,2.2c-.23,.64-.55,1.15-.96,1.55-.41,.39-.9,.64-1.46,.74l-.16,.03v3.36h.21c1.18-.1,2.19-.46,3.04-1.11,.85-.66,1.5-1.55,1.96-2.68,.46-1.13,.68-2.45,.68-3.96Zm0-23.67c0-1.92-.41-3.58-1.24-4.98-.83-1.39-2.01-2.47-3.53-3.23-1.53-.77-3.34-1.15-5.43-1.15h-.03c-2.09,0-3.89,.38-5.41,1.15-1.52,.76-2.7,1.84-3.53,3.24-.83,1.4-1.24,3.05-1.24,4.96s.41,3.57,1.24,4.98c.83,1.4,2.01,2.48,3.53,3.24,1.52,.76,3.33,1.15,5.41,1.15h.03c2.09,0,3.9-.38,5.43-1.14,1.52-.76,2.7-1.84,3.53-3.24,.83-1.4,1.24-3.07,1.24-4.99Zm-3.05,0c0,1.18-.29,2.2-.88,3.06-.58,.87-1.41,1.54-2.47,2.01-1.08,.46-2.34,.7-3.8,.7h-.03c-1.47,0-2.73-.23-3.8-.7-1.07-.47-1.89-1.14-2.46-2.01-.58-.88-.88-1.89-.88-3.06s.29-2.2,.88-3.06c.57-.87,1.4-1.53,2.47-2,1.07-.47,2.33-.71,3.79-.71h.03c1.45,0,2.71,.23,3.79,.7,1.07,.46,1.9,1.13,2.49,2,.58,.86,.88,1.88,.88,3.08Zm3.05-25.37c0-1.51-.29-2.87-.86-4.07-.58-1.2-1.39-2.18-2.42-2.94-1.03-.76-2.21-1.22-3.55-1.38l-.15-.03v3.46l.14,.04c.81,.21,1.5,.54,2.06,1,.57,.46,1,1.02,1.3,1.68,.29,.66,.44,1.4,.44,2.24,0,1.14-.29,2.14-.88,2.99-.59,.85-1.42,1.5-2.49,1.97-1.08,.46-2.34,.7-3.8,.7h-.01c-1.47,0-2.73-.23-3.79-.7-1.07-.46-1.89-1.12-2.47-1.97-.58-.85-.88-1.85-.88-2.99,0-.86,.15-1.62,.45-2.28,.3-.67,.72-1.22,1.27-1.65,.55-.44,1.2-.75,1.96-.94l.26-.07v-3.46h-.14c-1.34,.19-2.52,.65-3.55,1.41-1.03,.76-1.84,1.74-2.42,2.94-.58,1.19-.88,2.55-.88,4.06,0,1.89,.41,3.52,1.24,4.91,.82,1.39,1.99,2.46,3.51,3.21,1.52,.76,3.33,1.13,5.43,1.13h.01c2.1,0,3.91-.37,5.44-1.12,1.52-.76,2.7-1.83,3.53-3.21,.83-1.4,1.24-3.04,1.24-4.92Zm-.34-15.72v-3.53H1.27v3.53H21Zm0-10.25v-3.69l-16.21-5.3v-1.03H1.27v2.97l19.73,7.06Zm-5.1-3.57v-10.92l-2.72,.94v9.04l2.72,.94Zm5.1-10.8v-3.69l-19.73,7.04v1.96h3.51l16.21-5.3Zm0-10.43v-12.47h-2.97v8.94H1.27v3.53H21Zm.34-26.56c0-1.61-.25-2.98-.74-4.13-.49-1.16-1.19-2.04-2.09-2.65-.9-.62-1.96-.93-3.19-.93h-.01c-1.02,0-1.9,.21-2.62,.63-.73,.41-1.34,1.05-1.82,1.91-.48,.86-.87,1.99-1.15,3.36l-.44,2.12c-.25,1.18-.58,2.06-1.01,2.62-.44,.56-1,.83-1.7,.83h-.01c-.53,0-.99-.15-1.39-.45-.4-.31-.71-.74-.93-1.3-.23-.57-.34-1.23-.34-2s.11-1.39,.33-1.96,.53-1.02,.94-1.37c.4-.35,.89-.56,1.46-.64l.18-.03v-3.36h-.23c-1.12,.08-2.11,.42-2.95,1.04-.85,.61-1.51,1.45-1.98,2.53-.47,1.07-.71,2.33-.71,3.76s.25,2.67,.74,3.77c.48,1.1,1.16,1.97,2.04,2.6,.87,.62,1.88,.93,3.05,.94h.01c1.47,0,2.66-.48,3.58-1.45,.91-.97,1.57-2.42,1.97-4.35l.44-2.12c.27-1.28,.62-2.19,1.05-2.73,.43-.56,1.01-.83,1.75-.83h.01c.57,0,1.06,.16,1.49,.49,.42,.33,.74,.8,.97,1.41,.23,.6,.34,1.32,.34,2.15s-.11,1.55-.33,2.2c-.23,.64-.55,1.15-.96,1.55-.41,.39-.9,.64-1.46,.74l-.16,.03v3.36h.21c1.18-.1,2.19-.46,3.04-1.11,.85-.66,1.5-1.55,1.96-2.68,.46-1.13,.68-2.45,.68-3.96Zm-.34-25.22v-3.5H7.11v-1.5l-2.75,3.34,16.64-11.55v-3.14H1.27v3.5H15.11v1.49l2.76-3.34L1.27,178.21v3.17H21Zm0-24.47v-12.77h-2.97v9.24h-5.63v-8.74h-2.84v8.74H4.24v-9.24H1.27v12.77H21Zm0-25.28v-3.51H4.24v-5.89H1.27v15.31h2.97v-5.91H21Zm0-20.59v-3.4l-14.16-3.98v-.08l14.16-3.98v-3.4L1.27,90.91v3.65l14.89,3.43v.07l-14.89,3.95v3.2l14.89,3.95v.07l-14.89,3.43v3.66l19.73-5.29Zm.34-35.1c0-1.92-.41-3.58-1.24-4.98-.83-1.39-2.01-2.47-3.53-3.23-1.53-.77-3.34-1.15-5.43-1.15h-.03c-2.09,0-3.89,.38-5.41,1.15-1.52,.76-2.7,1.84-3.53,3.24-.83,1.39-1.24,3.05-1.24,4.96s.41,3.57,1.24,4.98c.83,1.39,2.01,2.47,3.53,3.24,1.52,.77,3.33,1.15,5.41,1.15h.03c2.09,0,3.9-.38,5.43-1.13,1.52-.77,2.7-1.85,3.53-3.24,.83-1.4,1.24-3.07,1.24-4.99Zm-3.05,0c0,1.18-.29,2.2-.88,3.06-.58,.87-1.41,1.54-2.47,2.01-1.08,.46-2.34,.7-3.8,.7h-.03c-1.47,0-2.73-.23-3.8-.7-1.07-.47-1.89-1.14-2.46-2.01-.58-.88-.88-1.9-.88-3.06s.29-2.2,.88-3.06c.57-.87,1.4-1.53,2.47-2,1.07-.47,2.33-.71,3.79-.71h.03c1.45,0,2.71,.23,3.79,.7,1.07,.46,1.9,1.13,2.49,2,.58,.86,.88,1.88,.88,3.08Zm2.71-16.79v-3.53h-7.38v-3.81l7.38-3.88v-4.02l-7.92,4.31c-.42-1.14-1.13-2.04-2.13-2.71-1-.67-2.17-1.01-3.5-1.01h-.03c-1.27,0-2.36,.27-3.28,.82-.92,.55-1.63,1.33-2.12,2.34-.5,1.01-.75,2.22-.75,3.62v7.88H21Zm-10.17-3.53H4.12v-3.91c0-1.11,.3-1.99,.9-2.64,.59-.65,1.4-.97,2.43-.97h.03c1.06,0,1.88,.31,2.47,.93,.58,.62,.87,1.49,.87,2.61v3.98Zm4.03-21.93l-4.68-3.95v-.55L1.27,21.74v4.03l9.27,7.66v.27h4.32Zm6.14,3.34v-3.53H1.27v3.53H21Zm0-11.61v-4.28l-11.72,8.38,2.35,2.53,9.37-6.63Zm.34-17.61c0-1.6-.25-2.98-.74-4.13-.49-1.16-1.19-2.04-2.09-2.65-.9-.62-1.96-.93-3.19-.93h-.01c-1.02,0-1.9,.21-2.62,.63-.73,.41-1.34,1.05-1.82,1.91-.48,.87-.87,1.99-1.15,3.36l-.44,2.12c-.25,1.18-.58,2.06-1.01,2.63-.44,.56-1,.83-1.7,.83h-.01c-.53,0-.99-.15-1.39-.45-.4-.31-.71-.74-.93-1.3-.23-.57-.34-1.23-.34-2s.11-1.39,.33-1.96c.22-.57,.53-1.02,.94-1.37,.4-.35,.89-.56,1.46-.64l.18-.03V.49h-.23c-1.12,.08-2.11,.42-2.95,1.04-.85,.61-1.51,1.45-1.98,2.53-.47,1.08-.71,2.33-.71,3.76s.25,2.67,.74,3.77c.48,1.1,1.16,1.97,2.04,2.6,.87,.62,1.88,.93,3.05,.94h.01c1.47,0,2.66-.48,3.58-1.45,.91-.97,1.57-2.42,1.97-4.35l.44-2.12c.27-1.28,.62-2.19,1.05-2.73,.43-.56,1.01-.83,1.75-.83h.01c.57,0,1.06,.16,1.49,.49,.42,.33,.74,.8,.97,1.41,.23,.6,.34,1.32,.34,2.15s-.11,1.55-.33,2.2c-.23,.64-.55,1.15-.96,1.54-.41,.39-.9,.64-1.46,.74l-.16,.03v3.36h.21c1.18-.1,2.19-.46,3.04-1.11,.85-.66,1.5-1.55,1.96-2.68,.46-1.13,.68-2.45,.68-3.96Z"/>
</svg>