<?xml version="1.0" encoding="UTF-8"?>
<svg id="Calque_1" data-name="Calque 1" xmlns="http://www.w3.org/2000/svg" viewBox="0 0 540.02 541.93">
  <defs>
    <style>
      .cls-1 {
        fill: #232323;
      }
    </style>
  </defs>
  <path class="cls-1" d="M278.96,540.49C116.66,540.6-11.78,404.33,.86,244.26,9.97,128.92,70.55,49.14,177.42,4.51c15.25-6.37,29.69-7.04,42.3,4.85,12.54,11.82,12.71,25.94,7.64,41.84-32,100.47,11.45,204.78,104.64,250.81,48.74,24.08,99.57,27.38,151.69,12.2,9.29-2.71,18.37-6.75,28.5-4.53,21.27,4.66,33.31,25.74,25.36,46.79-36.53,96.7-105.53,156.16-206.48,178.42-8.1,1.79-16.35,3.05-24.6,3.89-9.7,.98-19.47,1.24-27.51,1.71h0Zm159.62-147.81c-82.35,2.63-152.93-23.49-210.63-81.23-57.48-57.52-83.27-128.1-80.79-209.89-52.26,38.26-90.8,116.35-74.31,201.78,16.03,83.07,82.45,148.73,166.34,163.61,84.29,14.95,161.17-21.51,199.39-74.26h0Z"/>
  <path class="cls-1" d="M158.12,77.95c0,26.93,3.17,80.78,15.05,112.46s116.42,129.88,116.42,129.88l106.91,38.81,79.99,26.13-45.93,46.72-176.76,68.9-165.36-83.95-49.89-117.21v-86.32l34.05-76.03,47.52-59.4h38Z"/>
</svg>