<svg width="23" height="872" viewBox="0 0 23 872" fill="none" xmlns="http://www.w3.org/2000/svg">
<path d="M22 865.832V871.336H0.4L0.4 862.44L11.856 859.032C12.048 858.978 12.2667 858.93 12.512 858.888C12.7573 858.845 12.9813 858.824 13.184 858.824L16.832 858.808V858.424L13.184 858.408C12.9813 858.408 12.7573 858.392 12.512 858.36C12.2667 858.317 12.048 858.264 11.856 858.2L0.4 854.856L0.4 846.04H22V851.544H12.56C12.3467 851.544 12.1173 851.528 11.872 851.496C11.6267 851.453 11.4027 851.405 11.2 851.352L4.24 850.52V850.888L22 855.432L22 861.944L4.24 866.488V866.856L11.248 866.024C11.44 865.97 11.6587 865.928 11.904 865.896C12.1493 865.853 12.3733 865.832 12.576 865.832H22ZM0.4 820.081L0.4 814.049L14.016 822.289H22V827.841H14.016L0.4 836.097L0.4 830.065L8.336 825.777C8.48533 825.638 8.66667 825.526 8.88 825.441C9.09333 825.356 9.30667 825.313 9.52 825.313L10.384 825.233V824.881L9.52 824.817C9.31733 824.806 9.10933 824.764 8.896 824.689C8.672 824.604 8.48533 824.492 8.336 824.353L0.4 820.081ZM0.4 787.282L0.4 775.906C0.4 773.357 1.07733 771.549 2.432 770.482C3.78667 769.415 5.80267 768.882 8.48 768.882C11.1787 768.882 13.2 769.415 14.544 770.482C15.888 771.549 16.56 773.357 16.56 775.906V781.714H22V787.282H0.4ZM12.432 777.202C12.432 776.178 12.224 775.458 11.808 775.042C11.392 774.615 10.2827 774.402 8.48 774.402C6.688 774.402 5.584 774.615 5.168 775.042C4.752 775.458 4.544 776.178 4.544 777.202L4.544 781.73H12.432L12.432 777.202ZM0.4 759.181L0.4 747.213C0.4 744.802 1.05067 743.095 2.352 742.093C3.65333 741.09 5.31733 740.589 7.344 740.589C9.33867 740.589 10.9493 741.111 12.176 742.157C13.168 742.989 13.76 744.295 13.952 746.077L14.256 745.933L13.92 743.901L22 740.589V746.525L14.016 750.221L14.016 753.597H22V759.181H0.4ZM10.592 748.557C10.592 747.746 10.2933 747.143 9.696 746.749C9.088 746.354 8.32 746.157 7.392 746.157C6.528 746.157 5.776 746.359 5.136 746.765C4.48533 747.159 4.16 747.757 4.16 748.557L4.16 753.613H10.592V748.557ZM22.176 720.509C22.176 723.709 21.4133 726.237 19.888 728.093C18.3627 729.949 15.4667 730.877 11.2 730.877C6.93333 730.877 4.03733 729.949 2.512 728.093C0.986666 726.237 0.223999 723.709 0.223999 720.509C0.223999 717.319 0.986666 714.797 2.512 712.941C4.03733 711.074 6.93333 710.141 11.2 710.141C15.4667 710.141 18.3627 711.074 19.888 712.941C21.4133 714.797 22.176 717.319 22.176 720.509ZM18.384 720.509C18.384 719.047 18.0267 717.879 17.312 717.005C16.5867 716.119 14.5493 715.677 11.2 715.677C7.84 715.677 5.80267 716.119 5.088 717.005C4.36267 717.879 4 719.047 4 720.509C4 721.981 4.36267 723.154 5.088 724.029C5.80267 724.903 7.84 725.341 11.2 725.341C14.5493 725.341 16.5867 724.903 17.312 724.029C18.0267 723.154 18.384 721.981 18.384 720.509ZM22.192 691.151C22.192 694.255 21.552 696.591 20.272 698.159C18.992 699.716 17.2107 700.495 14.928 700.495H12.08V694.943H14.608C15.9947 694.943 16.944 694.676 17.456 694.143C17.968 693.599 18.224 692.607 18.224 691.167C18.224 689.727 17.984 688.73 17.504 688.175C17.0133 687.61 16.0747 687.327 14.688 687.327H0.4L0.4 681.791H15.376C17.52 681.791 19.1947 682.57 20.4 684.127C21.5947 685.674 22.192 688.015 22.192 691.151ZM0.4 671.83L0.4 655.942H4.8L4.8 666.262H8.848V656.374H13.28L13.28 666.262H17.584L17.584 655.942H22L22 671.83H0.4ZM22.128 636.118C22.128 639.307 21.3387 641.793 19.76 643.574C18.1707 645.355 15.296 646.246 11.136 646.246C6.98667 646.246 4.13333 645.355 2.576 643.574C1.008 641.793 0.223999 639.313 0.223999 636.134C0.223999 632.934 0.965333 630.513 2.448 628.87C3.92 627.227 6.29867 626.406 9.584 626.406V632.022C7.04533 632.022 5.53067 632.379 5.04 633.094C4.53867 633.798 4.288 634.822 4.288 636.166C4.288 637.542 4.592 638.63 5.2 639.43C5.79733 640.23 7.78133 640.63 11.152 640.63C14.5333 640.63 16.5333 640.23 17.152 639.43C17.76 638.619 18.064 637.531 18.064 636.166C18.064 634.833 17.808 633.809 17.296 633.094C16.7733 632.379 15.2587 632.022 12.752 632.022V626.406C15.9733 626.406 18.3413 627.227 19.856 628.87C21.3707 630.513 22.128 632.929 22.128 636.118ZM22 605.395V610.963H4.8L4.8 617.395H0.4L0.4 598.995H4.8L4.8 606.931H5.184V606.595C5.184 606.233 5.296 605.945 5.52 605.731C5.744 605.507 6.03733 605.395 6.4 605.395H22ZM22.128 579.657C22.128 582.814 21.5733 585.246 20.464 586.953C19.344 588.649 17.3013 589.497 14.336 589.497V583.929C16.3093 583.929 17.4773 583.545 17.84 582.777C18.192 582.009 18.368 580.985 18.368 579.705C18.368 578.436 18.2347 577.412 17.968 576.633C17.6907 575.854 17.0507 575.465 16.048 575.465C14.9813 575.465 14.2933 576.004 13.984 577.081C13.664 578.148 13.36 579.62 13.072 581.497C12.496 584.494 11.808 586.574 11.008 587.737C10.1973 588.9 8.82667 589.481 6.896 589.481C4.528 589.481 2.82667 588.606 1.792 586.857C0.746666 585.097 0.223999 582.734 0.223999 579.769C0.223999 576.761 0.805332 574.388 1.968 572.649C3.13067 570.9 5.11467 570.025 7.92 570.025V575.577C6.02133 575.577 4.89067 575.982 4.528 576.793C4.16533 577.593 3.984 578.601 3.984 579.817C3.984 581.118 4.12267 582.164 4.4 582.953C4.67733 583.732 5.30133 584.121 6.272 584.121C7.40267 584.121 8.11733 583.566 8.416 582.457C8.71467 581.348 9.01867 579.876 9.328 578.041C9.88267 574.948 10.5387 572.836 11.296 571.705C12.0427 570.564 13.3653 569.993 15.264 569.993C17.696 569.993 19.4507 570.841 20.528 572.537C21.5947 574.233 22.128 576.606 22.128 579.657ZM22.176 532.706C22.176 535.906 21.4133 538.434 19.888 540.29C18.3627 542.146 15.4667 543.074 11.2 543.074C6.93333 543.074 4.03733 542.146 2.512 540.29C0.986666 538.434 0.223999 535.906 0.223999 532.706C0.223999 529.517 0.986666 526.994 2.512 525.138C4.03733 523.271 6.93333 522.338 11.2 522.338C15.4667 522.338 18.3627 523.271 19.888 525.138C21.4133 526.994 22.176 529.517 22.176 532.706ZM18.384 532.706C18.384 531.245 18.0267 530.077 17.312 529.202C16.5867 528.317 14.5493 527.874 11.2 527.874C7.84 527.874 5.80267 528.317 5.088 529.202C4.36267 530.077 4 531.245 4 532.706C4 534.178 4.36267 535.351 5.088 536.226C5.80267 537.101 7.84 537.538 11.2 537.538C14.5493 537.538 16.5867 537.101 17.312 536.226C18.0267 535.351 18.384 534.178 18.384 532.706ZM0.4 512.564L0.4 497.556H4.8L4.8 506.996H8.896L8.896 497.972H13.312V506.996H22L22 512.564H0.4ZM22 458.45L22 466.914L0.4 470.818L0.4 464.834L15.888 462.706C16.0907 462.664 16.3147 462.632 16.56 462.61C16.8053 462.578 17.0347 462.562 17.248 462.562L18.8 462.546V462.162L17.248 462.13C17.0347 462.13 16.8053 462.114 16.56 462.082C16.3147 462.05 16.0907 462.008 15.888 461.954L0.4 458.93L0.4 451.682L16.432 448.482C16.5387 448.461 16.6347 448.45 16.72 448.45L18.8 448.434V448.066H16.736C16.6827 448.056 16.6293 448.05 16.576 448.05C16.5227 448.05 16.4693 448.045 16.416 448.034L0.4 445.65L0.4 439.666L22 443.682V452.178L6.08 454.914C5.87733 454.968 5.65333 455.01 5.408 455.042C5.16267 455.064 4.93333 455.08 4.72 455.09L3.648 455.106V455.474L4.72 455.506C4.93333 455.506 5.16267 455.522 5.408 455.554C5.65333 455.586 5.87733 455.629 6.08 455.682L22 458.45ZM0.4 430.012L0.4 414.124H4.8L4.8 424.444H8.848L8.848 414.556H13.28L13.28 424.444H17.584L17.584 414.124H22L22 430.012H0.4ZM0.4 404.364L0.4 392.636C0.4 389.97 0.848 388.172 1.744 387.244C2.64 386.306 3.94133 385.836 5.648 385.836C5.66933 385.836 5.696 385.836 5.728 385.836C7.2 385.836 8.27733 386.151 8.96 386.78C9.696 387.292 10.144 388.178 10.304 389.436H10.672C10.7147 388.306 11.1413 387.34 11.952 386.54C12.752 385.73 14.0693 385.324 15.904 385.324C18.1013 385.324 19.6693 385.788 20.608 386.716C21.536 387.634 22 389.447 22 392.156L22 404.364H0.4ZM8.72 393.292C8.72 392.588 8.51733 392.108 8.112 391.852C7.696 391.586 7.14667 391.452 6.464 391.452C5.80267 391.452 5.29067 391.57 4.928 391.804C4.55467 392.028 4.368 392.471 4.368 393.132L4.368 398.828H8.72V393.292ZM17.968 392.668C17.968 391.964 17.7653 391.495 17.36 391.26C16.9547 391.015 16.2773 390.892 15.328 390.892C14.4213 390.892 13.7333 391.031 13.264 391.308C12.784 391.586 12.544 392.13 12.544 392.94V398.828H17.968L17.968 392.668ZM0.4 358.318L0.4 347.582C0.4 344.67 1.2 342.515 2.8 341.118C4.4 339.721 7.19467 339.022 11.184 339.022C15.1733 339.022 17.9733 339.721 19.584 341.118C21.1947 342.515 22 344.67 22 347.582L22 358.318H0.4ZM17.952 348.51C17.952 347.187 17.6 346.201 16.896 345.55C16.192 344.889 14.288 344.558 11.184 344.558C8.10133 344.558 6.208 344.889 5.504 345.55C4.8 346.201 4.448 347.187 4.448 348.51L4.448 352.782H17.952L17.952 348.51ZM0.4 329.326L0.4 313.438H4.8L4.8 323.758H8.848V313.87H13.28V323.758H17.584V313.438H22V329.326H0.4ZM0.4 288.942L0.4 283.342L22 289.534V297.614L0.4 303.806L0.4 298.19L16.64 294.014C16.832 293.939 17.0507 293.881 17.296 293.838C17.5307 293.785 17.7547 293.758 17.968 293.758L19.216 293.742V293.39L17.968 293.374C17.7547 293.374 17.5307 293.353 17.296 293.31C17.0507 293.257 16.832 293.193 16.64 293.118L0.4 288.942ZM0.4 273.717L0.4 257.829H4.8L4.8 268.149H8.848V258.261H13.28L13.28 268.149H17.584L17.584 257.829H22L22 273.717H0.4ZM17.088 244.005H17.472L17.472 233.765H22L22 248.069H0.4L0.4 242.501H15.856C16.2293 242.501 16.528 242.613 16.752 242.837C16.9653 243.051 17.0773 243.339 17.088 243.701V244.005ZM22.176 213.804C22.176 217.004 21.4133 219.532 19.888 221.388C18.3627 223.244 15.4667 224.172 11.2 224.172C6.93333 224.172 4.03733 223.244 2.512 221.388C0.986666 219.532 0.223999 217.004 0.223999 213.804C0.223999 210.614 0.986666 208.092 2.512 206.236C4.03733 204.369 6.93333 203.436 11.2 203.436C15.4667 203.436 18.3627 204.369 19.888 206.236C21.4133 208.092 22.176 210.614 22.176 213.804ZM18.384 213.804C18.384 212.342 18.0267 211.174 17.312 210.3C16.5867 209.414 14.5493 208.972 11.2 208.972C7.84 208.972 5.80267 209.414 5.088 210.3C4.36267 211.174 4 212.342 4 213.804C4 215.276 4.36267 216.449 5.088 217.324C5.80267 218.198 7.84 218.636 11.2 218.636C14.5493 218.636 16.5867 218.198 17.312 217.324C18.0267 216.449 18.384 215.276 18.384 213.804ZM0.4 193.742L0.4 182.366C0.4 179.817 1.07733 178.009 2.432 176.942C3.78667 175.875 5.80267 175.342 8.48 175.342C11.1787 175.342 13.2 175.875 14.544 176.942C15.888 178.009 16.56 179.817 16.56 182.366V188.174H22V193.742H0.4ZM12.432 183.662C12.432 182.638 12.224 181.918 11.808 181.502C11.392 181.075 10.2827 180.862 8.48 180.862C6.688 180.862 5.584 181.075 5.168 181.502C4.752 181.918 4.544 182.638 4.544 183.662V188.19H12.432V183.662ZM0.4 165.641L0.4 154.265C0.4 151.715 1.07733 149.907 2.432 148.841C3.78667 147.774 5.80267 147.241 8.48 147.241C11.1787 147.241 13.2 147.774 14.544 148.841C15.888 149.907 16.56 151.715 16.56 154.265V160.073H22V165.641H0.4ZM12.432 155.561C12.432 154.537 12.224 153.817 11.808 153.401C11.392 152.974 10.2827 152.761 8.48 152.761C6.688 152.761 5.584 152.974 5.168 153.401C4.752 153.817 4.544 154.537 4.544 155.561L4.544 160.089H12.432L12.432 155.561ZM0.4 137.523L0.4 121.635H4.8L4.8 131.955H8.848L8.848 122.067H13.28L13.28 131.955H17.584L17.584 121.635H22L22 137.523H0.4ZM22 106.372L22 111.876H0.4L0.4 102.98L11.856 99.5716C12.048 99.5183 12.2667 99.4703 12.512 99.4276C12.7573 99.385 12.9813 99.3636 13.184 99.3636L16.832 99.3476V98.9636L13.184 98.9476C12.9813 98.9476 12.7573 98.9316 12.512 98.8996C12.2667 98.857 12.048 98.8036 11.856 98.7396L0.4 95.3956L0.4 86.5796H22L22 92.0836H12.56C12.3467 92.0836 12.1173 92.0676 11.872 92.0356C11.6267 91.993 11.4027 91.945 11.2 91.8916L4.24 91.0596V91.4276L22 95.9716V102.484L4.24 107.028V107.396L11.248 106.564C11.44 106.51 11.6587 106.468 11.904 106.436C12.1493 106.393 12.3733 106.372 12.576 106.372H22ZM0.4 76.3834L0.4 60.4954H4.8L4.8 70.8154H8.848L8.848 60.9274H13.28L13.28 70.8154H17.584L17.584 60.4954H22L22 76.3834H0.4ZM22 45.1996V50.7356H0.4L0.4 40.8796L18.096 33.9036V33.5356L12.944 34.1756C12.7733 34.2076 12.5867 34.2343 12.384 34.2556C12.1707 34.2769 11.9733 34.2876 11.792 34.2876H0.4L0.4 28.7356H22V38.2716L3.728 45.5516V45.9196L8.832 45.2956C8.98133 45.2636 9.152 45.2423 9.344 45.2316C9.536 45.2103 9.70667 45.1996 9.856 45.1996H22ZM22 7.04291V12.6109H4.8L4.8 19.0429H0.4L0.4 0.642914H4.8L4.8 8.57891H5.184V8.24291C5.184 7.88025 5.296 7.59225 5.52 7.37891C5.744 7.15491 6.03733 7.04291 6.4 7.04291H22Z" fill="#FCFCFC"/>
</svg>
