<?xml version="1.0" encoding="UTF-8"?>
<svg id="Calque_1" data-name="Calque 1" xmlns="http://www.w3.org/2000/svg" viewBox="0 0 729.06 841.89">
  <defs>
    <style>
      .cls-1 {
        fill: #fcfcfc;
      }

      .cls-2 {
        fill: #a1a1a1;
      }
    </style>
  </defs>
  <path class="cls-1" d="M554.51,712.46c.17,.81,.33,1.63,.5,2.44-2.67,1.06-.82,2.79-.55,4.2,1.24,6.4,4.38,12.37,4.58,18.98,.47,15.82-3.27,30.54-12.05,43.84-.94,1.42-1.92,2.85-.86,4.65,0,0,0,0,0,0-2.69-.11-3.46,1.01-2.23,3.44,0,0-.19,.19-.19,.19-3.45-1.12-5.06,.14-4.87,3.75-.47,.49-.95,.99-1.42,1.48-1.35-.67-2.17,.37-3.25,.85-6.65,2.97-12.16,8.88-18.83,10.56-9.85,2.48-19.72,5.52-29.7,7.05-24.26,3.72-48.59,7.21-73.2,8.18-21.56,.84-42.71-2.82-63.98-5.21-8.46-.95-17.44-.64-25.21-3.53-14.82-5.53-30.59-7.08-45.43-12.85-10.52-4.09-20.99-8.77-31.91-12.15-5.73-1.77-11.72-4.6-17.12-7.78-13.07-7.72-26.78-14.28-39.45-22.78-14-9.38-27.95-18.82-40.94-29.52-15.26-12.57-28.83-26.89-42.16-41.5-17.27-18.92-32.03-39.68-44.86-61.65-11.23-19.23-20.62-39.45-28.72-60.39-9.27-23.97-15.69-48.63-20.21-73.62-6.13-33.9-6.39-68.33-3.72-102.74,.42-5.35,2.06-10.99-.72-16.29,.05-.74,.09-1.48,.14-2.23,1.8-.41,1.98-1.87,2.21-3.34,3.27-21.14,7.71-42.03,13.91-62.51,.6-2,1.02-3.69-.12-5.51,.19-.89,.37-1.78,.56-2.67,3.58-3.93,4.58-9.13,6.76-13.74,7.62-16.14,14.62-32.61,23.14-48.26,2.85-5.23,5.25-10.85,8.8-15.84,7.25-10.19,14.7-20.4,20.93-31.09,6.32-10.84,14.23-20.02,22.47-29.03,13.24-14.47,27.48-27.86,42.89-40.19,12.6-10.08,25.1-20.36,38.69-28.85,11.59-7.25,23.36-14.41,35.5-20.94,14.97-8.05,30.51-14.74,46.15-20.81,12.97-5.03,26.54-9.01,40.37-12.12,37.72-8.5,75.63-14.06,114.3-11.59,19.65,1.26,39.51,2.82,58.69,6.95,16.72,3.6,33.59,7.17,49.92,13.21,10.89,4.03,21.8,8.33,32.71,12.39,6.42,2.39,13.18,5.04,19.06,8.65,12.14,7.45,24.73,14.11,36.86,21.59,14.22,8.76,27.55,18.62,40.27,29.18,13.48,11.19,24.79,24.5,33.9,39.85,8.39,14.14,14.31,28.86,18.77,44.62,10.03,35.43,4.96,69.22-8.31,102.66-2.88,7.27-7.09,13.77-10.14,20.76-5.35,12.26-13.05,22.57-22.14,31.97-10.29,10.64-21.72,19.66-34.65,27.31-16.36,9.68-33.74,16-51.97,19.95-13.8,2.99-28.16,2.03-42.25,3-22.36,1.53-43.53,8.08-62.7,19.71-16.26,9.87-29.53,23.16-40.94,38.55-11.53,15.54-20.2,32.13-23.69,51.24-.61,3.35-.71,6.81-1.5,10.11-5.01,20.98-.59,41.46,5.25,61.19,4.79,16.18,12.69,31.65,23.67,44.84,5.25,6.31,10.27,13.41,18.47,16.67,.88,.61,1.75,1.22,2.63,1.82,9.37,13.8,23.53,21.09,38.48,26.31,13.75,4.8,25.77,11.51,36.32,21.56,4.9,4.66,6.78,11.76,13.08,15.04Zm-144.75,91.87c13.23,.71,28.63-.41,43.87-2.04,21.89-2.34,44.15-4.59,63.67-16.07,18.26-10.75,25.7-27.77,23.82-48.08-2.73-29.56-20.21-39.82-43.94-47.7-8.41-2.79-16.33-6.8-23.35-11.32-10.22-6.59-20.11-14.05-28.9-23-11.86-12.08-22.13-25.2-29.77-40.05-7.79-15.12-12.15-31.71-15.34-48.39-3.82-19.95-2.16-39.76,3.54-59.26,1.84-6.29,1.67-13.08,4.66-19.1,6.32-12.76,11.77-25.91,20.92-37.2,8.61-10.62,16.99-21.3,28.04-29.56,9.93-7.41,20.17-14.16,31.61-19.17,11.99-5.25,23.9-10.67,36.95-12.41,23.81-3.17,48.06-1.39,71.63-8.38,15.4-4.57,29.55-11.25,42.32-20.24,14.47-10.19,26.84-22.75,37.06-37.75,16.11-23.63,24.6-49.52,26.3-77.58,1.32-21.75-1.82-42.91-10.64-63.42-4.38-10.19-10.17-19.07-15.88-28.31-6.51-10.52-15.73-18.16-24.75-25.96-5.43-4.7-9.73-10.52-16.44-14.14-7.71-4.16-15.01-9.51-22.04-14.66-7.03-5.16-14.55-9.85-21.92-13.78-14.37-7.68-29.03-15.1-44.51-20.81-9.13-3.37-18.68-5.5-27.5-9.24-15.23-6.46-31.44-9.49-47.25-12.03-39.09-6.28-78.67-5.82-118.1-1.81-9.15,.93-18.13,3.29-27.15,5.11-14.56,2.94-28.16,8.7-42.5,12.1-10.31,2.45-20.14,7.06-29.5,11.54-13.72,6.57-27.32,13.75-40.75,21.05-11.07,6.02-21.31,13.01-31.35,20.21-18.69,13.39-35.21,29.34-51.53,45.62-14.43,14.4-26.73,30.36-38.55,46.64-7.61,10.47-14.27,21.86-20.42,33.46-3.17,5.98-5.86,12.25-9.34,17.99-5.47,9-9.03,18.84-12.8,28.44-4.49,11.44-7.86,23.47-11.78,35.13-6.05,17.99-8.43,36.54-11.59,54.86-5.03,29.16-4.7,58.98-1.12,88.27,2.49,20.37,4.95,41.16,12.73,60.54,3.1,7.73,2.02,16.53,6.54,23.73,5.93,9.46,7.9,20.58,13.2,30.33,6.66,12.25,12.43,24.99,19.18,37.2,6.29,11.38,14,21.89,21.56,32.48,9.19,12.88,19.48,24.85,30.29,36.34,9.73,10.34,19.85,20.35,30.29,29.98,7.82,7.21,15.78,14.62,24.79,20.11,15.8,9.63,31.24,19.84,47.62,28.65,14.77,7.95,30.06,14.54,45.5,20.52,20.14,7.8,41.42,12.6,62.66,16.53,22.31,4.13,45.08,4.66,69.96,4.62Z"/>
  <path class="cls-2" d="M423.41,548.82c-.07-1.23,.49-1.66,1.66-1.28-.08,1.04-.54,1.59-1.66,1.28Z"/>
  <path class="cls-2" d="M425.14,547.48c-.42-.83-.16-1.21,.76-1.17,.28,.73,.13,1.19-.76,1.17Z"/>
  <path class="cls-1" d="M554.77,127.04c22.64-1.18,42.12,9.25,54.09,29.24,9.57,15.97,15.18,34.33,6.96,53.95-6.84,16.32-17.15,29.91-31.7,39.14-10.71,6.79-23.97,8.11-36.8,6.91-19.3-1.81-35.39-9.86-47.02-25.88-13.83-19.06-16.64-40.85-8.53-61.64,9.79-25.12,29.83-42.59,63-41.71Zm-39.51,91.33c.49,.48,.98,.95,1.48,1.43-.32,3.1,1.4,4.33,4.19,4.58,1,1.97,2.45,3.47,4.48,4.37,2.89,5.15,7.47,8.05,13.07,9.21,27.08,5.58,44.9-1.03,57.08-23.66,15.38-28.58,1.46-60.47-30.22-69.66-33.65-9.76-64.61,20.89-60.2,53.35,1,7.39,3.04,15.45,10.12,20.38Z"/>
  <path class="cls-1" d="M101.38,319.18c-3.31-12.56,5.66-24.07,11.7-35.75,3.37-6.52,10.72-12.2,18.07-15.33,14.68-6.27,29.14-15.22,46.33-8.12,4.04,1.67,8.33,2.74,12.52,4.05,11.04,3.45,20,10.17,26.88,19.11,7.04,9.15,10.91,19.85,12.04,31.55,1.43,14.82-1.36,28.06-8.53,41.59-7.45,14.06-19.28,21.7-32.14,28.01-9.31,4.58-20.33,4.25-30.91,3.5-18.65-1.32-32.32-11.69-44.34-24.61-8.87-9.54-11.67-21.25-11.62-43.99Zm63.71,52.14c22.49,.95,48.94-22.75,47.9-48.66-1.03-25.52-21.11-47.61-47.78-47.89-28.72-.3-48.73,25.38-49.01,48.54-.28,23.87,23.93,48.97,48.89,48.01Z"/>
  <path class="cls-1" d="M164.36,465.94c40.66,.86,66.55,28.47,66.91,65.94,.36,37.52-28.24,65.98-66.1,66.44-35.86,.43-65.65-27.54-65.8-65.94-.15-39.23,27.95-65.9,64.99-66.44Zm.56,15.24c-23.82,0-50.2,22.78-49.68,51.32,.5,27.43,24.85,49.38,49.27,49.36,23.94-.02,50.32-20.04,49.85-50.83-.46-29.91-23.81-46.98-49.44-49.85Z"/>
  <path class="cls-1" d="M324.45,114.37c38.97,2.73,66.98,27.65,66.56,67.73-.35,34.18-24.19,64.19-65.93,64.79-40.12,.58-66.52-31.64-66.48-65.71,.05-38.97,31.05-65.72,65.85-66.81Zm-27.68,104l.14,.13c4.41,5.81,11.09,8.34,17.52,9.9,25.01,6.07,51.53-10.99,56.76-35.56,6.22-29.22-7-46.53-30.58-57.77-17.01-8.11-38.9-.73-51.21,14.23-10.34,12.56-16.12,26.34-11.65,42.49,3.01,10.89,7.65,21.34,19.03,26.57Z"/>
</svg>